# xmcd
#
# Track frame offsets: 
#        150
#        27281
#        47862
#        65261
#        89665
#        109755
#        128874
#        147370
#        166390
#        184604
#        201405
#        224553
#        248261
#        270046
#
# Disc length: 3880 seconds
#
# Revision: 0
# Processed by: cddbd v1.5.1PL0 Copyright (c) Steve Scherf et al.
# Submitted via: ExactAudioCopy v0.95b2
#
DISCID=c80f260e
DTITLE=Mylene Farmer - Avant que l'ombre...
DYEAR=2005
DGENRE=Pop
TTITLE0=Avant que l'ombre...
TTITLE1=Fuck Them All
TTITLE2=Dans les rues de Londres
TTITLE3=Q.I
TTITLE4=Redonne-moi
TTITLE5=Porno graphique
TTITLE6=Derriere les fenetres
TTITLE7=Aime
TTITLE8=Tous ces combats
TTITLE9=Ange, parle-moi
TTITLE10=L'amour n'est rien...
TTITLE11=J'attends
TTITLE12=Peut-etre toi
TTITLE13=Et pourtant
EXTD=
EXTT0=
EXTT1=
EXTT2=
EXTT3=
EXTT4=
EXTT5=
EXTT6=
EXTT7=
EXTT8=
EXTT9=
EXTT10=
EXTT11=
EXTT12=
EXTT13=
PLAYORDER=
